<svg width="1500" height="1500" viewBox="0 0 1500 1500" fill="none" xmlns="http://www.w3.org/2000/svg">
<rect width="1500" height="1500" rx="750" fill="black"/>
<path d="M884.865 483.832C906.688 483.832 924.38 466.129 924.38 444.291C924.38 422.453 906.688 404.75 884.865 404.75C863.042 404.75 845.35 422.453 845.35 444.291C845.35 466.129 863.042 483.832 884.865 483.832Z" fill="white"/>
<path d="M929.302 1042.4C951.125 1042.4 968.816 1024.7 968.816 1002.86C968.816 981.024 951.125 963.32 929.302 963.32C907.478 963.32 889.787 981.024 889.787 1002.86C889.787 1024.7 907.478 1042.4 929.302 1042.4Z" fill="white"/>
<path d="M896.148 582.684C914.46 582.684 929.305 567.829 929.305 549.505C929.305 531.181 914.46 516.326 896.148 516.326C877.836 516.326 862.992 531.181 862.992 549.505C862.992 567.829 877.836 582.684 896.148 582.684Z" fill="white"/>
<path d="M984.334 595.41C1002.65 595.41 1017.49 580.555 1017.49 562.231C1017.49 543.907 1002.65 529.052 984.334 529.052C966.022 529.052 951.177 543.907 951.177 562.231C951.177 580.555 966.022 595.41 984.334 595.41Z" fill="white"/>
<path d="M884.864 666.759C900.458 666.759 913.099 654.11 913.099 638.507C913.099 622.902 900.458 610.253 884.864 610.253C869.271 610.253 856.631 622.902 856.631 638.507C856.631 654.11 869.271 666.759 884.864 666.759Z" fill="white"/>
<path d="M973.055 678.736C988.648 678.736 1001.29 666.086 1001.29 650.482C1001.29 634.879 988.648 622.229 973.055 622.229C957.462 622.229 944.821 634.879 944.821 650.482C944.821 666.086 957.462 678.736 973.055 678.736Z" fill="white"/>
<path d="M1043.61 706.3C1059.2 706.3 1071.84 693.651 1071.84 678.048C1071.84 662.443 1059.2 649.794 1043.61 649.794C1028.01 649.794 1015.37 662.443 1015.37 678.048C1015.37 693.651 1028.01 706.3 1043.61 706.3Z" fill="white"/>
<path d="M946.941 746.525C960.571 746.525 971.62 735.469 971.62 721.83C971.62 708.19 960.571 697.134 946.941 697.134C933.31 697.134 922.262 708.19 922.262 721.83C922.262 735.469 933.31 746.525 946.941 746.525Z" fill="white"/>
<path d="M858.749 734.488C872.38 734.488 883.428 723.431 883.428 709.792C883.428 696.152 872.38 685.096 858.749 685.096C845.12 685.096 834.07 696.152 834.07 709.792C834.07 723.431 845.12 734.488 858.749 734.488Z" fill="white"/>
<path d="M1018.25 774.03C1031.88 774.03 1042.92 762.973 1042.92 749.334C1042.92 735.694 1031.88 724.638 1018.25 724.638C1004.62 724.638 993.566 735.694 993.566 749.334C993.566 762.973 1004.62 774.03 1018.25 774.03Z" fill="white"/>
<path d="M911.666 798.108C923.371 798.108 932.859 788.613 932.859 776.9C932.859 765.188 923.371 755.693 911.666 755.693C899.962 755.693 890.473 765.188 890.473 776.9C890.473 788.613 899.962 798.108 911.666 798.108Z" fill="white"/>
<path d="M982.967 824.922C994.672 824.922 1004.16 815.427 1004.16 803.715C1004.16 792.003 994.672 782.508 982.967 782.508C971.263 782.508 961.775 792.003 961.775 803.715C961.775 815.427 971.263 824.922 982.967 824.922Z" fill="white"/>
<path d="M824.157 785.386C835.862 785.386 845.35 775.891 845.35 764.179C845.35 752.467 835.862 742.972 824.157 742.972C812.452 742.972 802.964 752.467 802.964 764.179C802.964 775.891 812.452 785.386 824.157 785.386Z" fill="white"/>
<path d="M872.833 832.656C882.574 832.656 890.471 824.753 890.471 815.005C890.471 805.258 882.574 797.355 872.833 797.355C863.092 797.355 855.195 805.258 855.195 815.005C855.195 824.753 863.092 832.656 872.833 832.656Z" fill="white"/>
<path d="M903.186 881.431C911.757 881.431 918.705 874.478 918.705 865.901C918.705 857.325 911.757 850.372 903.186 850.372C894.616 850.372 887.668 857.325 887.668 865.901C887.668 874.478 894.616 881.431 903.186 881.431Z" fill="white"/>
<path d="M865.791 891.283C872.814 891.283 878.507 885.585 878.507 878.558C878.507 871.53 872.814 865.834 865.791 865.834C858.768 865.834 853.075 871.53 853.075 878.558C853.075 885.585 858.768 891.283 865.791 891.283Z" fill="white"/>
<path d="M832.635 854.549C841.206 854.549 848.153 847.596 848.153 839.02C848.153 830.443 841.206 823.491 832.635 823.491C824.064 823.491 817.116 830.443 817.116 839.02C817.116 847.596 824.064 854.549 832.635 854.549Z" fill="white"/>
<path d="M784.641 820.679C794.383 820.679 802.279 812.777 802.279 803.03C802.279 793.282 794.383 785.38 784.641 785.38C774.9 785.38 767.003 793.282 767.003 803.03C767.003 812.777 774.9 820.679 784.641 820.679Z" fill="white"/>
<path d="M783.962 687.9C793.703 687.9 801.6 679.998 801.6 670.25C801.6 660.503 793.703 652.601 783.962 652.601C774.221 652.601 766.324 660.503 766.324 670.25C766.324 679.998 774.221 687.9 783.962 687.9Z" fill="white"/>
<path d="M791.685 625.783C800.256 625.783 807.204 618.831 807.204 610.255C807.204 601.678 800.256 594.726 791.685 594.726C783.114 594.726 776.167 601.678 776.167 610.255C776.167 618.831 783.114 625.783 791.685 625.783Z" fill="white"/>
<path d="M808.642 574.958C815.665 574.958 821.358 569.262 821.358 562.234C821.358 555.207 815.665 549.51 808.642 549.51C801.62 549.51 795.927 555.207 795.927 562.234C795.927 569.262 801.62 574.958 808.642 574.958Z" fill="white"/>
<path d="M779.039 550.943C787.61 550.943 794.557 543.991 794.557 535.414C794.557 526.838 787.61 519.885 779.039 519.885C770.468 519.885 763.52 526.838 763.52 535.414C763.52 543.991 770.468 550.943 779.039 550.943Z" fill="white"/>
<path d="M943.453 859.543C953.195 859.543 961.091 851.641 961.091 841.894C961.091 832.146 953.195 824.244 943.453 824.244C933.712 824.244 925.816 832.146 925.816 841.894C925.816 851.641 933.712 859.543 943.453 859.543Z" fill="white"/>
<path d="M738.772 530.417C748.513 530.417 756.41 522.516 756.41 512.768C756.41 503.02 748.513 495.118 738.772 495.118C729.031 495.118 721.134 503.02 721.134 512.768C721.134 522.516 729.031 530.417 738.772 530.417Z" fill="white"/>
<path d="M750.802 605.265C760.543 605.265 768.44 597.363 768.44 587.614C768.44 577.867 760.543 569.965 750.802 569.965C741.061 569.965 733.164 577.867 733.164 587.614C733.164 597.363 741.061 605.265 750.802 605.265Z" fill="white"/>
<path d="M731.047 676.614C742.751 676.614 752.239 667.119 752.239 655.407C752.239 643.695 742.751 634.2 731.047 634.2C719.343 634.2 709.854 643.695 709.854 655.407C709.854 667.119 719.343 676.614 731.047 676.614Z" fill="white"/>
<path d="M666.784 676.611C680.414 676.611 691.463 665.554 691.463 651.915C691.463 638.275 680.414 627.219 666.784 627.219C653.153 627.219 642.104 638.275 642.104 651.915C642.104 665.554 653.153 676.611 666.784 676.611Z" fill="white"/>
<path d="M591.995 693.579C607.588 693.579 620.23 680.929 620.23 665.325C620.23 649.722 607.588 637.072 591.995 637.072C576.402 637.072 563.761 649.722 563.761 665.325C563.761 680.929 576.402 693.579 591.995 693.579Z" fill="white"/>
<path d="M510.162 733.804C528.474 733.804 543.318 718.949 543.318 700.625C543.318 682.301 528.474 667.446 510.162 667.446C491.85 667.446 477.005 682.301 477.005 700.625C477.005 718.949 491.85 733.804 510.162 733.804Z" fill="white"/>
<path d="M425.459 801.598C447.283 801.598 464.974 783.895 464.974 762.056C464.974 740.219 447.283 722.516 425.459 722.516C403.636 722.516 385.945 740.219 385.945 762.056C385.945 783.895 403.636 801.598 425.459 801.598Z" fill="white"/>
<path d="M477.005 651.166C495.317 651.166 510.161 636.311 510.161 617.987C510.161 599.663 495.317 584.808 477.005 584.808C458.693 584.808 443.848 599.663 443.848 617.987C443.848 636.311 458.693 651.166 477.005 651.166Z" fill="white"/>
<path d="M558.84 610.936C574.433 610.936 587.074 598.287 587.074 582.683C587.074 567.079 574.433 554.43 558.84 554.43C543.247 554.43 530.605 567.079 530.605 582.683C530.605 598.287 543.247 610.936 558.84 610.936Z" fill="white"/>
<path d="M546.876 536.097C562.469 536.097 575.11 523.448 575.11 507.844C575.11 492.24 562.469 479.591 546.876 479.591C531.282 479.591 518.641 492.24 518.641 507.844C518.641 523.448 531.282 536.097 546.876 536.097Z" fill="white"/>
<path d="M621.663 519.131C635.293 519.131 646.342 508.074 646.342 494.436C646.342 480.796 635.293 469.739 621.663 469.739C608.033 469.739 596.983 480.796 596.983 494.436C596.983 508.074 608.033 519.131 621.663 519.131Z" fill="white"/>
<path d="M685.86 519.198C697.564 519.198 707.052 509.704 707.052 497.991C707.052 486.279 697.564 476.784 685.86 476.784C674.155 476.784 664.667 486.279 664.667 497.991C664.667 509.704 674.155 519.198 685.86 519.198Z" fill="white"/>
<path d="M697.821 594.042C709.525 594.042 719.013 584.548 719.013 572.835C719.013 561.123 709.525 551.628 697.821 551.628C686.117 551.628 676.628 561.123 676.628 572.835C676.628 584.548 686.117 594.042 697.821 594.042Z" fill="white"/>
<path d="M633.627 594.658C647.257 594.658 658.306 583.601 658.306 569.962C658.306 556.323 647.257 545.267 633.627 545.267C619.996 545.267 608.948 556.323 608.948 569.962C608.948 583.601 619.996 594.658 633.627 594.658Z" fill="white"/>
<path d="M563.759 782.576C570.782 782.576 576.475 776.88 576.475 769.852C576.475 762.825 570.782 757.128 563.759 757.128C556.736 757.128 551.043 762.825 551.043 769.852C551.043 776.88 556.736 782.576 563.759 782.576Z" fill="white"/>
<path d="M614.555 776.15C623.125 776.15 630.073 769.198 630.073 760.621C630.073 752.045 623.125 745.092 614.555 745.092C605.984 745.092 599.036 752.045 599.036 760.621C599.036 769.198 605.984 776.15 614.555 776.15Z" fill="white"/>
<path d="M670.34 755.01C680.081 755.01 687.978 747.108 687.978 737.36C687.978 727.612 680.081 719.71 670.34 719.71C660.599 719.71 652.702 727.612 652.702 737.36C652.702 747.108 660.599 755.01 670.34 755.01Z" fill="white"/>
<path d="M683.738 811.514C695.442 811.514 704.931 802.019 704.931 790.307C704.931 778.594 695.442 769.1 683.738 769.1C672.033 769.1 662.545 778.594 662.545 790.307C662.545 802.019 672.033 811.514 683.738 811.514Z" fill="white"/>
<path d="M615.988 824.923C625.729 824.923 633.626 817.021 633.626 807.274C633.626 797.525 625.729 789.624 615.988 789.624C606.247 789.624 598.35 797.525 598.35 807.274C598.35 817.021 606.247 824.923 615.988 824.923Z" fill="white"/>
<path d="M556.034 824.176C564.605 824.176 571.553 817.223 571.553 808.647C571.553 800.07 564.605 793.117 556.034 793.117C547.463 793.117 540.516 800.07 540.516 808.647C540.516 817.223 547.463 824.176 556.034 824.176Z" fill="white"/>
<path d="M556.72 872.947C566.461 872.947 574.358 865.045 574.358 855.297C574.358 845.55 566.461 837.647 556.72 837.647C546.978 837.647 539.082 845.55 539.082 855.297C539.082 865.045 546.978 872.947 556.72 872.947Z" fill="white"/>
<path d="M628.706 882.117C640.411 882.117 649.899 872.622 649.899 860.91C649.899 849.198 640.411 839.703 628.706 839.703C617.002 839.703 607.514 849.198 607.514 860.91C607.514 872.622 617.002 882.117 628.706 882.117Z" fill="white"/>
<path d="M712.655 872.883C726.285 872.883 737.334 861.826 737.334 848.187C737.334 834.548 726.285 823.491 712.655 823.491C699.025 823.491 687.976 834.548 687.976 848.187C687.976 861.826 699.025 872.883 712.655 872.883Z" fill="white"/>
<path d="M762.086 934.38C777.679 934.38 790.32 921.73 790.32 906.127C790.32 890.522 777.679 877.873 762.086 877.873C746.493 877.873 733.852 890.522 733.852 906.127C733.852 921.73 746.493 934.38 762.086 934.38Z" fill="white"/>
<path d="M658.307 942.796C671.938 942.796 682.986 931.739 682.986 918.1C682.986 904.46 671.938 893.403 658.307 893.403C644.678 893.403 633.628 904.46 633.628 918.1C633.628 931.739 644.678 942.796 658.307 942.796Z" fill="white"/>
<path d="M599.788 990.817C613.418 990.817 624.467 979.76 624.467 966.121C624.467 952.482 613.418 941.425 599.788 941.425C586.157 941.425 575.108 952.482 575.108 966.121C575.108 979.76 586.157 990.817 599.788 990.817Z" fill="white"/>
<path d="M648.464 1053C664.057 1053 676.698 1040.35 676.698 1024.75C676.698 1009.15 664.057 996.496 648.464 996.496C632.871 996.496 620.23 1009.15 620.23 1024.75C620.23 1040.35 632.871 1053 648.464 1053Z" fill="white"/>
<path d="M778.286 1064.29C796.597 1064.29 811.442 1049.44 811.442 1031.12C811.442 1012.79 796.597 997.938 778.286 997.938C759.973 997.938 745.129 1012.79 745.129 1031.12C745.129 1049.44 759.973 1064.29 778.286 1064.29Z" fill="white"/>
<path d="M707.053 1004.98C722.646 1004.98 735.287 992.334 735.287 976.73C735.287 961.126 722.646 948.477 707.053 948.477C691.459 948.477 678.818 961.126 678.818 976.73C678.818 992.334 691.459 1004.98 707.053 1004.98Z" fill="white"/>
<path d="M832.637 993.692C850.949 993.692 865.794 978.838 865.794 960.513C865.794 942.189 850.949 927.334 832.637 927.334C814.326 927.334 799.481 942.189 799.481 960.513C799.481 978.838 814.326 993.692 832.637 993.692Z" fill="white"/>
<path d="M570.117 930.139C581.822 930.139 591.31 920.645 591.31 908.932C591.31 897.22 581.822 887.725 570.117 887.725C558.413 887.725 548.925 897.22 548.925 908.932C548.925 920.645 558.413 930.139 570.117 930.139Z" fill="white"/>
</svg>
