<svg width="497" height="195" viewBox="0 0 497 195" fill="none" xmlns="http://www.w3.org/2000/svg">
<g clip-path="url(#clip0_4712_3815)">
<path d="M139.121 60.7844C142.34 60.7844 144.949 58.1819 144.949 54.9715C144.949 51.7611 142.34 49.1586 139.121 49.1586C135.903 49.1586 133.294 51.7611 133.294 54.9715C133.294 58.1819 135.903 60.7844 139.121 60.7844Z" fill="white"/>
<path d="M145.678 142.892C148.896 142.892 151.506 140.29 151.506 137.079C151.506 133.869 148.896 131.267 145.678 131.267C142.459 131.267 139.85 133.869 139.85 137.079C139.85 140.29 142.459 142.892 145.678 142.892Z" fill="white"/>
<path d="M140.787 75.3169C143.488 75.3169 145.678 73.1326 145.678 70.4382C145.678 67.7438 143.488 65.5596 140.787 65.5596C138.086 65.5596 135.896 67.7438 135.896 70.4382C135.896 73.1326 138.086 75.3169 140.787 75.3169Z" fill="white"/>
<path d="M153.797 77.1849C156.498 77.1849 158.688 75.0006 158.688 72.3062C158.688 69.6118 156.498 67.4275 153.797 67.4275C151.095 67.4275 148.906 69.6118 148.906 72.3062C148.906 75.0006 151.095 77.1849 153.797 77.1849Z" fill="white"/>
<path d="M139.122 87.669C141.421 87.669 143.285 85.8101 143.285 83.517C143.285 81.2238 141.421 79.3649 139.122 79.3649C136.823 79.3649 134.959 81.2238 134.959 83.517C134.959 85.8101 136.823 87.669 139.122 87.669Z" fill="white"/>
<path d="M152.13 89.4345C154.429 89.4345 156.293 87.5756 156.293 85.2825C156.293 82.9893 154.429 81.1304 152.13 81.1304C149.831 81.1304 147.967 82.9893 147.967 85.2825C147.967 87.5756 149.831 89.4345 152.13 89.4345Z" fill="white"/>
<path d="M162.537 93.4823C164.836 93.4823 166.7 91.6233 166.7 89.3302C166.7 87.0371 164.836 85.1782 162.537 85.1782C160.238 85.1782 158.375 87.0371 158.375 89.3302C158.375 91.6233 160.238 93.4823 162.537 93.4823Z" fill="white"/>
<path d="M148.28 99.3988C150.291 99.3988 151.922 97.7722 151.922 95.7657C151.922 93.7592 150.291 92.1327 148.28 92.1327C146.268 92.1327 144.637 93.7592 144.637 95.7657C144.637 97.7722 146.268 99.3988 148.28 99.3988Z" fill="white"/>
<path d="M135.272 97.6333C137.283 97.6333 138.914 96.0067 138.914 94.0003C138.914 91.9938 137.283 90.3672 135.272 90.3672C133.26 90.3672 131.629 91.9938 131.629 94.0003C131.629 96.0067 133.26 97.6333 135.272 97.6333Z" fill="white"/>
<path d="M158.791 103.447C160.802 103.447 162.433 101.82 162.433 99.8135C162.433 97.807 160.802 96.1805 158.791 96.1805C156.779 96.1805 155.148 97.807 155.148 99.8135C155.148 101.82 156.779 103.447 158.791 103.447Z" fill="white"/>
<path d="M143.077 106.976C144.801 106.976 146.199 105.581 146.199 103.862C146.199 102.142 144.801 100.748 143.077 100.748C141.353 100.748 139.955 102.142 139.955 103.862C139.955 105.581 141.353 106.976 143.077 106.976Z" fill="white"/>
<path d="M153.588 110.921C155.312 110.921 156.71 109.526 156.71 107.806C156.71 106.087 155.312 104.692 153.588 104.692C151.864 104.692 150.466 106.087 150.466 107.806C150.466 109.526 151.864 110.921 153.588 110.921Z" fill="white"/>
<path d="M130.171 105.107C131.896 105.107 133.293 103.712 133.293 101.993C133.293 100.273 131.896 98.8785 130.171 98.8785C128.447 98.8785 127.049 100.273 127.049 101.993C127.049 103.712 128.447 105.107 130.171 105.107Z" fill="white"/>
<path d="M137.352 112.063C138.789 112.063 139.954 110.901 139.954 109.468C139.954 108.035 138.789 106.873 137.352 106.873C135.915 106.873 134.751 108.035 134.751 109.468C134.751 110.901 135.915 112.063 137.352 112.063Z" fill="white"/>
<path d="M141.827 119.225C143.092 119.225 144.117 118.202 144.117 116.941C144.117 115.68 143.092 114.658 141.827 114.658C140.563 114.658 139.538 115.68 139.538 116.941C139.538 118.202 140.563 119.225 141.827 119.225Z" fill="white"/>
<path d="M136.312 120.679C137.346 120.679 138.185 119.842 138.185 118.81C138.185 117.778 137.346 116.942 136.312 116.942C135.277 116.942 134.438 117.778 134.438 118.81C134.438 119.842 135.277 120.679 136.312 120.679Z" fill="white"/>
<path d="M131.42 115.28C132.685 115.28 133.71 114.258 133.71 112.996C133.71 111.735 132.685 110.713 131.42 110.713C130.156 110.713 129.131 111.735 129.131 112.996C129.131 114.258 130.156 115.28 131.42 115.28Z" fill="white"/>
<path d="M124.345 110.298C125.782 110.298 126.946 109.136 126.946 107.703C126.946 106.27 125.782 105.108 124.345 105.108C122.908 105.108 121.743 106.27 121.743 107.703C121.743 109.136 122.908 110.298 124.345 110.298Z" fill="white"/>
<path d="M124.239 90.782C125.676 90.782 126.841 89.6202 126.841 88.187C126.841 86.7538 125.676 85.5919 124.239 85.5919C122.803 85.5919 121.638 86.7538 121.638 88.187C121.638 89.6202 122.803 90.782 124.239 90.782Z" fill="white"/>
<path d="M125.384 81.6479C126.649 81.6479 127.674 80.6255 127.674 79.3643C127.674 78.1031 126.649 77.0806 125.384 77.0806C124.12 77.0806 123.095 78.1031 123.095 79.3643C123.095 80.6255 124.12 81.6479 125.384 81.6479Z" fill="white"/>
<path d="M127.882 74.1741C128.917 74.1741 129.756 73.3376 129.756 72.3056C129.756 71.2737 128.917 70.4372 127.882 70.4372C126.848 70.4372 126.009 71.2737 126.009 72.3056C126.009 73.3376 126.848 74.1741 127.882 74.1741Z" fill="white"/>
<path d="M123.511 70.6456C124.776 70.6456 125.801 69.6232 125.801 68.362C125.801 67.1008 124.776 66.0784 123.511 66.0784C122.247 66.0784 121.222 67.1008 121.222 68.362C121.222 69.6232 122.247 70.6456 123.511 70.6456Z" fill="white"/>
<path d="M147.76 116.006C149.196 116.006 150.361 114.844 150.361 113.411C150.361 111.978 149.196 110.816 147.76 110.816C146.323 110.816 145.158 111.978 145.158 113.411C145.158 114.844 146.323 116.006 147.76 116.006Z" fill="white"/>
<path d="M117.579 67.6353C119.016 67.6353 120.181 66.4734 120.181 65.0402C120.181 63.607 119.016 62.4452 117.579 62.4452C116.143 62.4452 114.978 63.607 114.978 65.0402C114.978 66.4734 116.143 67.6353 117.579 67.6353Z" fill="white"/>
<path d="M119.349 78.6386C120.785 78.6386 121.95 77.4768 121.95 76.0436C121.95 74.6104 120.785 73.4485 119.349 73.4485C117.912 73.4485 116.747 74.6104 116.747 76.0436C116.747 77.4768 117.912 78.6386 119.349 78.6386Z" fill="white"/>
<path d="M116.435 89.122C118.16 89.122 119.558 87.7278 119.558 86.0079C119.558 84.2881 118.16 82.8939 116.435 82.8939C114.711 82.8939 113.313 84.2881 113.313 86.0079C113.313 87.7278 114.711 89.122 116.435 89.122Z" fill="white"/>
<path d="M106.964 89.1213C108.975 89.1213 110.606 87.4948 110.606 85.4883C110.606 83.4818 108.975 81.8552 106.964 81.8552C104.952 81.8552 103.321 83.4818 103.321 85.4883C103.321 87.4948 104.952 89.1213 106.964 89.1213Z" fill="white"/>
<path d="M95.9335 91.6138C98.2326 91.6138 100.096 89.7548 100.096 87.4617C100.096 85.1686 98.2326 83.3096 95.9335 83.3096C93.6345 83.3096 91.7708 85.1686 91.7708 87.4617C91.7708 89.7548 93.6345 91.6138 95.9335 91.6138Z" fill="white"/>
<path d="M83.8613 97.531C86.5627 97.531 88.7526 95.3468 88.7526 92.6523C88.7526 89.9579 86.5627 87.7737 83.8613 87.7737C81.1599 87.7737 78.97 89.9579 78.97 92.6523C78.97 95.3468 81.1599 97.531 83.8613 97.531Z" fill="white"/>
<path d="M71.3727 107.495C74.5913 107.495 77.2006 104.893 77.2006 101.682C77.2006 98.4719 74.5913 95.8694 71.3727 95.8694C68.154 95.8694 65.5447 98.4719 65.5447 101.682C65.5447 104.893 68.154 107.495 71.3727 107.495Z" fill="white"/>
<path d="M78.9709 85.3857C81.6723 85.3857 83.8622 83.2014 83.8622 80.507C83.8622 77.8126 81.6723 75.6283 78.9709 75.6283C76.2695 75.6283 74.0797 77.8126 74.0797 80.507C74.0797 83.2014 76.2695 85.3857 78.9709 85.3857Z" fill="white"/>
<path d="M91.0415 79.4684C93.3406 79.4684 95.2043 77.6094 95.2043 75.3163C95.2043 73.0232 93.3406 71.1642 91.0415 71.1642C88.7425 71.1642 86.8787 73.0232 86.8787 75.3163C86.8787 77.6094 88.7425 79.4684 91.0415 79.4684Z" fill="white"/>
<path d="M89.272 68.465C91.5711 68.465 93.4348 66.6061 93.4348 64.313C93.4348 62.0198 91.5711 60.1609 89.272 60.1609C86.973 60.1609 85.1093 62.0198 85.1093 64.313C85.1093 66.6061 86.973 68.465 89.272 68.465Z" fill="white"/>
<path d="M100.304 65.9742C102.316 65.9742 103.947 64.3476 103.947 62.3411C103.947 60.3346 102.316 58.708 100.304 58.708C98.2925 58.708 96.6617 60.3346 96.6617 62.3411C96.6617 64.3476 98.2925 65.9742 100.304 65.9742Z" fill="white"/>
<path d="M109.774 65.9743C111.498 65.9743 112.896 64.5801 112.896 62.8602C112.896 61.1404 111.498 59.7462 109.774 59.7462C108.049 59.7462 106.651 61.1404 106.651 62.8602C106.651 64.5801 108.049 65.9743 109.774 65.9743Z" fill="white"/>
<path d="M111.543 76.9764C113.268 76.9764 114.665 75.5822 114.665 73.8623C114.665 72.1425 113.268 70.7483 111.543 70.7483C109.819 70.7483 108.421 72.1425 108.421 73.8623C108.421 75.5822 109.819 76.9764 111.543 76.9764Z" fill="white"/>
<path d="M102.073 77.0814C104.085 77.0814 105.716 75.4548 105.716 73.4483C105.716 71.4418 104.085 69.8153 102.073 69.8153C100.062 69.8153 98.4308 71.4418 98.4308 73.4483C98.4308 75.4548 100.062 77.0814 102.073 77.0814Z" fill="white"/>
<path d="M91.77 104.692C92.8046 104.692 93.6432 103.856 93.6432 102.824C93.6432 101.792 92.8046 100.955 91.77 100.955C90.7354 100.955 89.8967 101.792 89.8967 102.824C89.8967 103.856 90.7354 104.692 91.77 104.692Z" fill="white"/>
<path d="M99.2633 103.759C100.528 103.759 101.553 102.736 101.553 101.475C101.553 100.214 100.528 99.1914 99.2633 99.1914C97.9989 99.1914 96.9738 100.214 96.9738 101.475C96.9738 102.736 97.9989 103.759 99.2633 103.759Z" fill="white"/>
<path d="M107.484 100.645C108.921 100.645 110.086 99.4834 110.086 98.0502C110.086 96.617 108.921 95.4551 107.484 95.4551C106.047 95.4551 104.883 96.617 104.883 98.0502C104.883 99.4834 106.047 100.645 107.484 100.645Z" fill="white"/>
<path d="M109.462 108.948C111.186 108.948 112.584 107.554 112.584 105.834C112.584 104.114 111.186 102.72 109.462 102.72C107.737 102.72 106.339 104.114 106.339 105.834C106.339 107.554 107.737 108.948 109.462 108.948Z" fill="white"/>
<path d="M99.4722 110.92C100.909 110.92 102.074 109.758 102.074 108.325C102.074 106.892 100.909 105.73 99.4722 105.73C98.0353 105.73 96.8704 106.892 96.8704 108.325C96.8704 109.758 98.0353 110.92 99.4722 110.92Z" fill="white"/>
<path d="M90.6251 110.816C91.8896 110.816 92.9146 109.794 92.9146 108.532C92.9146 107.271 91.8896 106.249 90.6251 106.249C89.3606 106.249 88.3356 107.271 88.3356 108.532C88.3356 109.794 89.3606 110.816 90.6251 110.816Z" fill="white"/>
<path d="M90.7287 117.979C92.1656 117.979 93.3304 116.817 93.3304 115.384C93.3304 113.951 92.1656 112.789 90.7287 112.789C89.2918 112.789 88.127 113.951 88.127 115.384C88.127 116.817 89.2918 117.979 90.7287 117.979Z" fill="white"/>
<path d="M101.344 119.328C103.069 119.328 104.466 117.934 104.466 116.214C104.466 114.494 103.069 113.1 101.344 113.1C99.62 113.1 98.2222 114.494 98.2222 116.214C98.2222 117.934 99.62 119.328 101.344 119.328Z" fill="white"/>
<path d="M113.73 117.979C115.741 117.979 117.372 116.352 117.372 114.346C117.372 112.339 115.741 110.713 113.73 110.713C111.718 110.713 110.087 112.339 110.087 114.346C110.087 116.352 111.718 117.979 113.73 117.979Z" fill="white"/>
<path d="M121.013 127.009C123.312 127.009 125.176 125.15 125.176 122.857C125.176 120.564 123.312 118.705 121.013 118.705C118.714 118.705 116.85 120.564 116.85 122.857C116.85 125.15 118.714 127.009 121.013 127.009Z" fill="white"/>
<path d="M105.716 128.255C107.727 128.255 109.358 126.629 109.358 124.622C109.358 122.616 107.727 120.989 105.716 120.989C103.704 120.989 102.073 122.616 102.073 124.622C102.073 126.629 103.704 128.255 105.716 128.255Z" fill="white"/>
<path d="M97.0775 135.313C99.0892 135.313 100.72 133.687 100.72 131.68C100.72 129.674 99.0892 128.047 97.0775 128.047C95.0658 128.047 93.4351 129.674 93.4351 131.68C93.4351 133.687 95.0658 135.313 97.0775 135.313Z" fill="white"/>
<path d="M104.258 144.449C106.557 144.449 108.421 142.59 108.421 140.296C108.421 138.003 106.557 136.144 104.258 136.144C101.959 136.144 100.095 138.003 100.095 140.296C100.095 142.59 101.959 144.449 104.258 144.449Z" fill="white"/>
<path d="M123.408 146.11C126.109 146.11 128.299 143.926 128.299 141.231C128.299 138.537 126.109 136.352 123.408 136.352C120.706 136.352 118.516 138.537 118.516 141.231C118.516 143.926 120.706 146.11 123.408 146.11Z" fill="white"/>
<path d="M112.896 137.389C115.195 137.389 117.059 135.53 117.059 133.237C117.059 130.944 115.195 129.085 112.896 129.085C110.597 129.085 108.733 130.944 108.733 133.237C108.733 135.53 110.597 137.389 112.896 137.389Z" fill="white"/>
<path d="M131.421 135.73C134.123 135.73 136.313 133.546 136.313 130.851C136.313 128.157 134.123 125.973 131.421 125.973C128.72 125.973 126.53 128.157 126.53 130.851C126.53 133.546 128.72 135.73 131.421 135.73Z" fill="white"/>
<path d="M92.7064 126.387C94.4307 126.387 95.8285 124.993 95.8285 123.273C95.8285 121.554 94.4307 120.159 92.7064 120.159C90.9821 120.159 89.5843 121.554 89.5843 123.273C89.5843 124.993 90.9821 126.387 92.7064 126.387Z" fill="white"/>
<path d="M215.424 66.4646H208.278V129.116H215.424V66.4646Z" fill="white"/>
<path d="M238.425 97.74C238.425 80.1847 253.137 65.3171 270.438 65.3171C287.839 65.3171 302.34 80.074 302.34 97.74C302.34 115.406 287.739 130.163 270.438 130.163C253.237 130.264 238.425 115.406 238.425 97.74ZM295.195 97.74C295.195 83.8186 283.905 71.9708 270.438 71.9708C256.97 71.9708 245.58 83.8186 245.58 97.74C245.58 111.772 256.97 123.61 270.438 123.61C283.905 123.61 295.195 111.772 295.195 97.74Z" fill="white"/>
<path d="M339.009 73.2189H317.985V66.4646H367.089V73.2189H346.054V129.116H338.909L339.009 73.2189Z" fill="white"/>
<path d="M404.58 75.1919L380.857 129.116H373.089L399.091 69.9978C400.024 67.8134 402.202 66.4646 404.48 66.4646C406.858 66.4646 408.936 67.8134 409.869 69.9978L435.87 129.116H428.103L404.58 75.1919Z" fill="white"/>
</g>
<defs>
<clipPath id="clip0_4712_3815">
<rect width="393.191" height="129.268" fill="white" transform="translate(52.0793 33)"/>
</clipPath>
</defs>
</svg>
