<svg xmlns="http://www.w3.org/2000/svg" viewBox="0 0 420 120" fill="none">
  <defs>
    <linearGradient id="coin-grad" x1="0" y1="0" x2="0" y2="1">
      <stop offset="0%" stop-color="#5b8af5"/>
      <stop offset="100%" stop-color="#2559f5"/>
    </linearGradient>
  </defs>

  <g transform="translate(16, 12)">
    <!-- coin circle -->
    <circle cx="48" cy="48" r="40" fill="url(#coin-grad)" opacity="0.9"/>
    <!-- inner ring -->
    <circle cx="48" cy="48" r="30" fill="none" stroke="#e2e8f0" stroke-width="2" opacity="0.3"/>
    <!-- IOTA diamond shape -->
    <path d="M48 22 L66 48 L48 74 L30 48 Z" fill="none" stroke="#e2e8f0" stroke-width="2.5" stroke-linejoin="round" opacity="0.85"/>
    <!-- center dot -->
    <circle cx="48" cy="48" r="4" fill="#e2e8f0" opacity="0.9"/>
  </g>

  <!-- "Jota" as paths — bold geometric monospace -->
  <g fill="#e2e8f0">
    <!-- J -->
    <path d="M128 30 L158 30 L158 38 L148 38 L148 72 Q148 84 136 84 L128 84 L128 76 L134 76 Q140 76 140 72 L140 38 L128 38 Z"/>
    <!-- o -->
    <path d="M176 48 Q190 48 190 60 L190 72 Q190 84 176 84 Q162 84 162 72 L162 60 Q162 48 176 48 Z M176 56 Q170 56 170 60 L170 72 Q170 76 176 76 Q182 76 182 72 L182 60 Q182 56 176 56 Z"/>
    <!-- t -->
    <path d="M204 34 L212 34 L212 48 L224 48 L224 56 L212 56 L212 74 Q212 76 216 76 L224 76 L224 84 L214 84 Q204 84 204 74 L204 56 L196 56 L196 48 L204 48 Z"/>
    <!-- a -->
    <path d="M244 48 Q258 48 258 60 L258 84 L250 84 L250 80 Q246 84 240 84 Q230 84 230 74 Q230 64 244 64 L250 64 L250 60 Q250 56 244 56 L234 56 L234 48 Z M244 70 Q238 70 238 74 Q238 76 244 76 L250 76 L250 70 Z"/>
  </g>
</svg>
